<svg xmlns="http://www.w3.org/2000/svg" xmlns:xlink="http://www.w3.org/1999/xlink" width="500" zoomAndPan="magnify" viewBox="0 0 375 374.999991" height="500" preserveAspectRatio="xMidYMid meet" version="1.0"><path fill="#6750a5" d="M 208.613281 371.515625 C 212.050781 355.523438 211.394531 340.304688 207.257812 322.226562 C 226.394531 323.835938 244.726562 312.605469 250.179688 294.636719 C 250.910156 291.453125 249.519531 289.257812 248.421875 288.601562 C 244.070312 286.074219 238.359375 283.074219 234.886719 280.84375 C 229.617188 254.386719 220.835938 248.898438 202.171875 240.484375 L 202.101562 240.445312 C 200.234375 239.53125 199.539062 237.703125 199.613281 235.984375 L 200.160156 225.152344 C 200.417969 220.433594 198.769531 219.003906 194.929688 219.332031 C 128.550781 230.859375 146.078125 300.234375 117.941406 327.753906 C 117.941406 327.753906 117.210938 288.785156 126.0625 257.9375 C 134.917969 227.089844 150.726562 224.566406 150.066406 201.625 C 148.203125 190.535156 144.617188 182.265625 139.308594 177.402344 C 111.757812 152.191406 73.554688 147.214844 72.824219 97.667969 C 72.714844 89.691406 90.972656 92.984375 104.953125 93.023438 C 118.929688 93.058594 136.089844 85.925781 150.578125 72.496094 C 165.070312 59.101562 208.101562 62.03125 234.703125 71.542969 C 261.304688 81.058594 303.054688 132.613281 296.246094 144.140625 C 289.441406 155.628906 244.726562 181.644531 238.140625 182.707031 C 231.519531 183.769531 217.320312 164.117188 225.445312 143.992188 C 233.566406 123.867188 233.566406 116.808594 230.238281 106.523438 C 226.871094 96.277344 221.308594 91.011719 221.308594 91.011719 C 221.308594 91.011719 232.214844 109.636719 219.773438 137.480469 C 207.367188 165.324219 225.738281 196.390625 232.175781 195.109375 C 238.617188 193.867188 262.472656 181.097656 262.472656 181.097656 C 262.472656 181.097656 276.011719 247.65625 299.722656 282.160156 C 304.371094 288.929688 312.96875 299.027344 323.765625 311.324219 C 350.4375 281.355469 367.488281 242.460938 369.722656 199.246094 C 374.992188 98.363281 297.457031 12.339844 196.539062 7.109375 C 95.621094 1.875 9.59375 79.410156 4.363281 180.328125 C 0.0078125 264.265625 52.957031 337.925781 128.953125 363.320312 C 144.324219 368.441406 160.605469 371.625 177.582031 372.503906 C 189.109375 373.125 199.5 372.355469 208.613281 371.515625 Z M 162.140625 97.15625 C 167.007812 97.414062 170.777344 101.585938 170.523438 106.453125 C 170.265625 111.316406 166.09375 115.085938 161.226562 114.832031 C 156.359375 114.574219 152.59375 110.402344 152.847656 105.535156 C 153.105469 100.671875 157.277344 96.902344 162.140625 97.15625 Z M 209.894531 288.820312 C 205.320312 288.5625 201.808594 284.683594 202.0625 280.109375 C 202.28125 275.539062 206.199219 272.023438 210.773438 272.28125 C 215.34375 272.5 218.859375 276.414062 218.601562 280.988281 C 218.347656 285.527344 214.46875 289.039062 209.894531 288.820312 Z M 209.894531 288.820312 " fill-opacity="1" fill-rule="evenodd"/></svg>