<?xml version="1.0" encoding="UTF-8"?>
<svg id="Capa_1" data-name="Capa 1" xmlns="http://www.w3.org/2000/svg" xmlns:xlink="http://www.w3.org/1999/xlink" viewBox="0 0 437.95 150.46">
  <defs>
    <style>
      .cls-1, .cls-2 {
        fill: #6750a5;
      }

      .cls-3 {
        fill: none;
      }

      .cls-2 {
        fill-rule: evenodd;
      }

      .cls-4 {
        clip-path: url(#clippath);
      }
    </style>
    <clipPath id="clippath">
      <rect class="cls-3" width="150.67" height="150.46"/>
    </clipPath>
  </defs>
  <g class="cls-4">
    <path class="cls-2" d="M83.88,149.41c1.4-6.53,1.14-12.74-.55-20.13,7.81.66,15.3-3.93,17.53-11.27.3-1.3-.27-2.2-.72-2.47-1.78-1.03-4.11-2.26-5.53-3.17-2.15-10.8-5.74-13.05-13.36-16.48l-.03-.02c-.76-.38-1.05-1.13-1.02-1.82l.22-4.43c.1-1.93-.57-2.51-2.14-2.38-27.11,4.71-19.95,33.04-31.44,44.28,0,0-.3-15.91,3.32-28.51,3.62-12.6,10.07-13.63,9.8-22.99-.76-4.53-2.22-7.91-4.39-9.9-11.25-10.29-26.85-12.33-27.15-32.56-.05-3.26,7.41-1.91,13.12-1.9,5.71.02,12.71-2.9,18.64-8.38,5.92-5.47,23.49-4.28,34.35-.39,10.86,3.89,27.92,24.94,25.14,29.65-2.78,4.69-21.04,15.32-23.73,15.75-2.7.44-8.5-7.59-5.18-15.81,3.31-8.22,3.31-11.1,1.95-15.3-1.38-4.18-3.65-6.33-3.65-6.33,0,0,4.45,7.6-.63,18.97-5.07,11.38,2.43,24.06,5.06,23.54,2.63-.51,12.38-5.72,12.38-5.72,0,0,5.53,27.18,15.21,41.27,1.9,2.77,5.41,6.89,9.82,11.91,10.89-12.24,17.85-28.13,18.77-45.77C151.82,37.86,120.16,2.73,78.95.6S2.6,30.13.47,71.34c-1.78,34.28,19.84,64.36,50.88,74.73,6.28,2.09,12.93,3.39,19.86,3.75,4.71.26,8.95-.06,12.67-.41ZM64.9,37.38c1.99.1,3.53,1.81,3.42,3.79-.1,1.99-1.81,3.53-3.8,3.42-1.98-.1-3.53-1.81-3.42-3.79.1-1.99,1.81-3.53,3.8-3.42ZM84.4,115.64c-1.86-.1-3.3-1.69-3.2-3.55.09-1.87,1.69-3.3,3.56-3.2,1.87.09,3.3,1.69,3.2,3.56-.1,1.85-1.69,3.29-3.56,3.19Z"/>
  </g>
  <path class="cls-1" d="M234.05,79.17c-1.46,1.31-3.01,2.1-4.65,2.4-1.63.29-3.9.55-6.81.77l-6,.44c-2.54.14-4.58.38-6.1.71-1.53.32-2.8.77-3.81,1.35-.88.58-1.7,1.37-2.46,2.35-.77.99-1.15,2.31-1.15,3.98,0,1.39.28,2.61.85,3.67.58,1.04,1.31,1.9,2.19,2.56,1.23,1.02,2.65,1.64,4.25,1.85,1.61.21,3.07.31,4.38.31,1.89,0,3.99-.19,6.31-.58,2.33-.4,4.38-1.22,6.13-2.46,1.59-1.09,2.84-2.44,3.75-4.04.92-1.59,1.61-3.19,2.08-4.79.47-1.61.76-3.1.88-4.48.11-1.39.17-2.41.17-3.06v-.98ZM191.28,67.94c-.07-2.98.4-5.46,1.42-7.42,1.01-1.97,2.15-3.57,3.4-4.81,1.38-1.38,2.98-2.5,4.83-3.38,1.86-.88,3.8-1.55,5.83-2.02,2.04-.47,4.15-.78,6.33-.92,2.19-.15,4.34-.23,6.44-.23,1.68,0,3.57.09,5.69.27,2.11.18,4.21.51,6.31.98,2.11.47,4.13,1.17,6.06,2.08,1.93.91,3.58,2.05,4.96,3.44,1.17,1.24,2.05,2.51,2.67,3.81.63,1.31,1.05,2.6,1.27,3.88.22,1.27.33,2.52.33,3.75v24.77c0,2.77.36,4.55,1.08,5.35.15.22.46.48.94.77.47.28,1.1.42,1.9.42.88,0,1.53-.1,1.98-.31v8.19c-2.11.43-4.22.65-6.33.65-1.03,0-2.31-.09-3.83-.27-1.53-.18-2.87-.71-4.02-1.58-.81-.58-1.54-1.44-2.19-2.56-.66-1.13-1.06-2.38-1.21-3.77-1.08,1.46-2.41,2.84-3.98,4.15-1.56,1.31-3.29,2.33-5.19,3.06-1.45.58-3.24,1.03-5.4,1.35-2.14.33-4.92.5-8.33.5-1.1,0-2.32-.04-3.67-.13-1.35-.07-2.73-.22-4.15-.44-1.42-.21-2.82-.55-4.21-1.02-1.38-.47-2.68-1.15-3.92-2.02-1.67-1.17-3.18-2.8-4.52-4.92-1.35-2.11-2.02-4.8-2.02-8.06,0-2.54.42-4.65,1.25-6.31.83-1.68,1.76-3.03,2.79-4.06.65-.72,1.79-1.61,3.42-2.67,1.64-1.05,3.98-1.91,7.04-2.56,1.75-.36,3.6-.63,5.56-.81,1.97-.18,4.11-.38,6.44-.6l6.23-.54c2.54-.22,4.63-.51,6.27-.88,1.64-.36,2.9-.94,3.77-1.75.5-.43.91-.99,1.23-1.69.33-.69.5-1.55.5-2.56,0-1.23-.31-2.47-.94-3.71-.61-1.23-1.79-2.36-3.52-3.4-1.68-.88-3.51-1.44-5.48-1.69-1.96-.25-3.56-.38-4.79-.38-1.81,0-3.75.15-5.83.44-2.07.29-3.87.91-5.4,1.85-1.89,1.08-3.09,2.34-3.6,3.77-.5,1.42-.75,2.74-.75,3.98h-12.67Z"/>
  <path class="cls-1" d="M301.26,59.75h-.98c-.95,0-2.15.02-3.6.06-1.46.03-3.01.21-4.65.54-1.63.32-3.28.85-4.96,1.58-1.67.72-3.2,1.77-4.58,3.15-2.47,2.41-4.06,5.32-4.75,8.75-.68,3.42-1.02,6.87-1.02,10.35v22.58h-12.67v-55.42h12.33v10.15h.21c.58-1.09,1.49-2.48,2.73-4.15,1.23-1.68,3.09-3.17,5.56-4.48,2.55-1.39,5.1-2.19,7.65-2.4,2.54-.22,4.76-.33,6.65-.33h2.08v9.6Z"/>
  <path class="cls-1" d="M352.52,51.36h14.96l-26.19,21.81,27.81,33.6h-14.6l-21.4-26.83-9.92,8.17v18.67h-12.67V30.4h12.67v45.94l29.33-24.98Z"/>
  <path class="cls-1" d="M437.95,79.07c0,4.66-.77,8.77-2.29,12.33-1.53,3.56-3.45,6.5-5.77,8.83-1.82,1.82-3.83,3.29-6.02,4.42-2.18,1.13-4.4,1.99-6.65,2.6-2.25.63-4.49,1.05-6.71,1.27-2.22.22-4.28.33-6.17.33s-3.95-.11-6.17-.33c-2.21-.22-4.45-.65-6.71-1.27-2.25-.61-4.47-1.48-6.65-2.6-2.18-1.13-4.18-2.59-6-4.42-2.33-2.33-4.27-5.28-5.79-8.83-1.53-3.57-2.29-7.68-2.29-12.33s.76-8.76,2.29-12.33c1.53-3.57,3.46-6.51,5.79-8.83,1.82-1.82,3.82-3.29,6-4.42,2.18-1.13,4.4-1.99,6.65-2.6,2.26-.63,4.5-1.05,6.71-1.27,2.22-.22,4.28-.33,6.17-.33s3.94.11,6.17.33c2.22.22,4.46.65,6.71,1.27,2.25.61,4.46,1.48,6.65,2.6,2.19,1.13,4.2,2.6,6.02,4.42,2.32,2.32,4.24,5.27,5.77,8.83,1.53,3.57,2.29,7.68,2.29,12.33ZM404.34,57.79c-3.78,0-6.8.55-9.06,1.65-2.25,1.08-3.96,2.17-5.13,3.25-2.1,2.04-3.64,4.56-4.63,7.54-.99,2.97-1.48,5.92-1.48,8.83s.49,5.85,1.48,8.83c.98,2.99,2.53,5.49,4.63,7.52,1.17,1.1,2.88,2.2,5.13,3.29,2.26,1.08,5.28,1.63,9.06,1.63s6.81-.54,9.06-1.63c2.25-1.09,3.96-2.19,5.13-3.29,2.11-2.03,3.65-4.53,4.63-7.52.98-2.98,1.48-5.93,1.48-8.83s-.49-5.86-1.48-8.83c-.97-2.98-2.52-5.5-4.63-7.54-1.17-1.08-2.88-2.17-5.13-3.25-2.25-1.09-5.27-1.65-9.06-1.65Z"/>
</svg>
