<svg xmlns="http://www.w3.org/2000/svg" xmlns:xlink="http://www.w3.org/1999/xlink" width="500" zoomAndPan="magnify" viewBox="0 0 375 374.999991" height="500" preserveAspectRatio="xMidYMid meet" version="1.0"><defs><g/><clipPath id="9ac84ba062"><path d="M 70 8 L 305 8 L 305 242.535156 L 70 242.535156 Z M 70 8 " clip-rule="nonzero"/></clipPath><clipPath id="3ef5cc18c1"><rect x="0" width="267" y="0" height="122"/></clipPath></defs><g clip-path="url(#9ac84ba062)"><path fill="#6750a5" d="M 200.988281 241.800781 C 203.1875 231.582031 202.769531 221.851562 200.125 210.296875 C 212.355469 211.328125 224.074219 204.144531 227.558594 192.664062 C 228.027344 190.628906 227.136719 189.226562 226.4375 188.804688 C 223.652344 187.191406 220.003906 185.273438 217.78125 183.847656 C 214.414062 166.9375 208.800781 163.429688 196.875 158.050781 L 196.828125 158.027344 C 195.632812 157.441406 195.191406 156.269531 195.238281 155.171875 L 195.585938 148.25 C 195.75 145.234375 194.699219 144.320312 192.242188 144.53125 C 149.816406 151.898438 161.019531 196.242188 143.035156 213.828125 C 143.035156 213.828125 142.566406 188.921875 148.226562 169.203125 C 153.886719 149.488281 163.992188 147.875 163.570312 133.210938 C 162.375 126.125 160.085938 120.839844 156.695312 117.726562 C 139.082031 101.613281 114.664062 98.433594 114.199219 66.765625 C 114.128906 61.667969 125.796875 63.773438 134.734375 63.796875 C 143.667969 63.820312 154.636719 59.257812 163.898438 50.675781 C 173.160156 42.117188 200.664062 43.988281 217.664062 50.066406 C 234.667969 56.148438 261.355469 89.101562 257.003906 96.46875 C 252.652344 103.8125 224.074219 120.441406 219.863281 121.121094 C 215.632812 121.796875 206.554688 109.238281 211.75 96.375 C 216.941406 83.511719 216.941406 79 214.8125 72.425781 C 212.660156 65.878906 209.105469 62.507812 209.105469 62.507812 C 209.105469 62.507812 216.074219 74.414062 208.125 92.210938 C 200.195312 110.011719 211.9375 129.867188 216.050781 129.046875 C 220.167969 128.253906 235.417969 120.089844 235.417969 120.089844 C 235.417969 120.089844 244.070312 162.632812 259.226562 184.6875 C 262.195312 189.015625 267.691406 195.46875 274.589844 203.328125 C 291.640625 184.171875 302.539062 159.3125 303.96875 131.691406 C 307.335938 67.210938 257.777344 12.226562 193.273438 8.882812 C 128.769531 5.535156 73.785156 55.097656 70.4375 119.597656 C 67.65625 173.25 101.5 220.332031 150.074219 236.5625 C 159.898438 239.835938 170.304688 241.871094 181.15625 242.433594 C 188.523438 242.828125 195.167969 242.339844 200.988281 241.800781 Z M 171.289062 66.4375 C 174.398438 66.601562 176.808594 69.269531 176.644531 72.378906 C 176.480469 75.488281 173.8125 77.898438 170.703125 77.734375 C 167.59375 77.570312 165.183594 74.90625 165.347656 71.792969 C 165.511719 68.683594 168.175781 66.273438 171.289062 66.4375 Z M 201.808594 188.945312 C 198.886719 188.78125 196.640625 186.300781 196.804688 183.378906 C 196.945312 180.453125 199.445312 178.210938 202.371094 178.371094 C 205.292969 178.511719 207.539062 181.015625 207.375 183.9375 C 207.210938 186.839844 204.730469 189.085938 201.808594 188.945312 Z M 201.808594 188.945312 " fill-opacity="1" fill-rule="evenodd"/></g><g transform="matrix(1, 0, 0, 1, 55, 253)"><g clip-path="url(#3ef5cc18c1)"><g fill="#6750a5" fill-opacity="1"><g transform="translate(0.235219, 111.571838)"><g><path d="M 49.765625 -28.421875 C 48.265625 -27.066406 46.671875 -26.238281 44.984375 -25.9375 C 43.296875 -25.644531 40.957031 -25.382812 37.96875 -25.15625 L 31.78125 -24.71875 C 29.164062 -24.5625 27.070312 -24.316406 25.5 -23.984375 C 23.925781 -23.648438 22.613281 -23.179688 21.5625 -22.578125 C 20.664062 -21.972656 19.820312 -21.164062 19.03125 -20.15625 C 18.25 -19.144531 17.859375 -17.78125 17.859375 -16.0625 C 17.859375 -14.632812 18.15625 -13.378906 18.75 -12.296875 C 19.351562 -11.210938 20.101562 -10.332031 21 -9.65625 C 22.28125 -8.613281 23.742188 -7.976562 25.390625 -7.75 C 27.035156 -7.519531 28.53125 -7.40625 29.875 -7.40625 C 31.820312 -7.40625 33.992188 -7.613281 36.390625 -8.03125 C 38.785156 -8.445312 40.882812 -9.289062 42.6875 -10.5625 C 44.332031 -11.6875 45.625 -13.070312 46.5625 -14.71875 C 47.5 -16.363281 48.207031 -18.007812 48.6875 -19.65625 C 49.175781 -21.300781 49.476562 -22.832031 49.59375 -24.25 C 49.707031 -25.675781 49.765625 -26.726562 49.765625 -27.40625 Z M 5.734375 -39.984375 C 5.648438 -43.054688 6.132812 -45.601562 7.1875 -47.625 C 8.238281 -49.644531 9.398438 -51.289062 10.671875 -52.5625 C 12.097656 -53.988281 13.765625 -55.148438 15.671875 -56.046875 C 17.578125 -56.953125 19.578125 -57.644531 21.671875 -58.125 C 23.773438 -58.613281 25.945312 -58.929688 28.1875 -59.078125 C 30.4375 -59.234375 32.648438 -59.3125 34.828125 -59.3125 C 36.546875 -59.3125 38.488281 -59.21875 40.65625 -59.03125 C 42.832031 -58.84375 45.003906 -58.503906 47.171875 -58.015625 C 49.347656 -57.523438 51.425781 -56.8125 53.40625 -55.875 C 55.394531 -54.945312 57.097656 -53.769531 58.515625 -52.34375 C 59.710938 -51.070312 60.628906 -49.757812 61.265625 -48.40625 C 61.910156 -47.0625 62.34375 -45.734375 62.5625 -44.421875 C 62.789062 -43.109375 62.90625 -41.816406 62.90625 -40.546875 C 62.90625 -39.273438 62.90625 -38.113281 62.90625 -37.0625 L 62.90625 -15.046875 C 62.90625 -12.203125 63.28125 -10.367188 64.03125 -9.546875 C 64.175781 -9.316406 64.492188 -9.050781 64.984375 -8.75 C 65.472656 -8.457031 66.128906 -8.3125 66.953125 -8.3125 C 67.847656 -8.3125 68.519531 -8.425781 68.96875 -8.65625 L 68.96875 -0.21875 C 66.800781 0.226562 64.628906 0.453125 62.453125 0.453125 C 61.398438 0.453125 60.085938 0.359375 58.515625 0.171875 C 56.941406 -0.015625 55.554688 -0.554688 54.359375 -1.453125 C 53.535156 -2.054688 52.785156 -2.9375 52.109375 -4.09375 C 51.441406 -5.257812 51.035156 -6.550781 50.890625 -7.96875 C 49.765625 -6.476562 48.394531 -5.054688 46.78125 -3.703125 C 45.175781 -2.359375 43.398438 -1.3125 41.453125 -0.5625 C 39.953125 0.0390625 38.097656 0.507812 35.890625 0.84375 C 33.679688 1.175781 30.816406 1.34375 27.296875 1.34375 C 26.171875 1.34375 24.914062 1.304688 23.53125 1.234375 C 22.144531 1.160156 20.722656 1.007812 19.265625 0.78125 C 17.804688 0.5625 16.363281 0.207031 14.9375 -0.28125 C 13.519531 -0.769531 12.171875 -1.460938 10.890625 -2.359375 C 9.171875 -3.554688 7.617188 -5.238281 6.234375 -7.40625 C 4.847656 -9.582031 4.15625 -12.351562 4.15625 -15.71875 C 4.15625 -18.34375 4.582031 -20.515625 5.4375 -22.234375 C 6.300781 -23.960938 7.257812 -25.347656 8.3125 -26.390625 C 8.988281 -27.140625 10.164062 -28.054688 11.84375 -29.140625 C 13.53125 -30.234375 15.945312 -31.113281 19.09375 -31.78125 C 20.894531 -32.15625 22.804688 -32.4375 24.828125 -32.625 C 26.847656 -32.8125 29.054688 -33.019531 31.453125 -33.25 L 37.859375 -33.8125 C 40.472656 -34.03125 42.625 -34.328125 44.3125 -34.703125 C 46 -35.078125 47.289062 -35.675781 48.1875 -36.5 C 48.707031 -36.957031 49.132812 -37.539062 49.46875 -38.25 C 49.8125 -38.957031 49.984375 -39.835938 49.984375 -40.890625 C 49.984375 -42.160156 49.664062 -43.429688 49.03125 -44.703125 C 48.394531 -45.972656 47.175781 -47.132812 45.375 -48.1875 C 43.65625 -49.082031 41.785156 -49.660156 39.765625 -49.921875 C 37.742188 -50.191406 36.097656 -50.328125 34.828125 -50.328125 C 32.953125 -50.328125 30.945312 -50.175781 28.8125 -49.875 C 26.675781 -49.570312 24.820312 -48.9375 23.25 -47.96875 C 21.300781 -46.84375 20.066406 -45.546875 19.546875 -44.078125 C 19.023438 -42.617188 18.765625 -41.253906 18.765625 -39.984375 Z M 5.734375 -39.984375 "/></g></g></g><g fill="#6750a5" fill-opacity="1"><g transform="translate(72.791058, 111.571838)"><g><path d="M 46.390625 -48.40625 L 45.375 -48.40625 C 44.40625 -48.40625 43.171875 -48.382812 41.671875 -48.34375 C 40.171875 -48.3125 38.578125 -48.128906 36.890625 -47.796875 C 35.210938 -47.460938 33.507812 -46.921875 31.78125 -46.171875 C 30.0625 -45.421875 28.492188 -44.332031 27.078125 -42.90625 C 24.523438 -40.4375 22.894531 -37.441406 22.1875 -33.921875 C 21.476562 -30.398438 21.125 -26.84375 21.125 -23.25 L 21.125 0 L 8.09375 0 L 8.09375 -57.0625 L 20.78125 -57.0625 L 20.78125 -46.609375 L 21 -46.609375 C 21.601562 -47.734375 22.539062 -49.15625 23.8125 -50.875 C 25.082031 -52.601562 26.992188 -54.140625 29.546875 -55.484375 C 32.160156 -56.910156 34.78125 -57.734375 37.40625 -57.953125 C 40.03125 -58.179688 42.3125 -58.296875 44.25 -58.296875 L 46.390625 -58.296875 Z M 46.390625 -48.40625 "/></g></g></g><g fill="#6750a5" fill-opacity="1"><g transform="translate(120.637488, 111.571838)"><g><path d="M 51.328125 -57.0625 L 66.71875 -57.0625 L 39.765625 -34.59375 L 68.40625 0 L 53.359375 0 L 31.34375 -27.625 L 21.125 -19.203125 L 21.125 0 L 8.09375 0 L 8.09375 -78.625 L 21.125 -78.625 L 21.125 -31.34375 Z M 51.328125 -57.0625 "/></g></g></g><g fill="#6750a5" fill-opacity="1"><g transform="translate(185.892678, 111.571838)"><g><path d="M 74.03125 -28.53125 C 74.03125 -23.738281 73.242188 -19.503906 71.671875 -15.828125 C 70.097656 -12.160156 68.113281 -9.128906 65.71875 -6.734375 C 63.84375 -4.867188 61.78125 -3.351562 59.53125 -2.1875 C 57.28125 -1.03125 54.992188 -0.132812 52.671875 0.5 C 50.359375 1.132812 48.054688 1.566406 45.765625 1.796875 C 43.484375 2.023438 41.367188 2.140625 39.421875 2.140625 C 37.472656 2.140625 35.359375 2.023438 33.078125 1.796875 C 30.796875 1.566406 28.492188 1.132812 26.171875 0.5 C 23.847656 -0.132812 21.5625 -1.03125 19.3125 -2.1875 C 17.070312 -3.351562 15.015625 -4.867188 13.140625 -6.734375 C 10.742188 -9.128906 8.757812 -12.160156 7.1875 -15.828125 C 5.613281 -19.503906 4.828125 -23.738281 4.828125 -28.53125 C 4.828125 -33.320312 5.613281 -37.550781 7.1875 -41.21875 C 8.757812 -44.894531 10.742188 -47.929688 13.140625 -50.328125 C 15.015625 -52.191406 17.070312 -53.703125 19.3125 -54.859375 C 21.5625 -56.023438 23.847656 -56.925781 26.171875 -57.5625 C 28.492188 -58.195312 30.796875 -58.628906 33.078125 -58.859375 C 35.359375 -59.085938 37.472656 -59.203125 39.421875 -59.203125 C 41.367188 -59.203125 43.484375 -59.085938 45.765625 -58.859375 C 48.054688 -58.628906 50.359375 -58.195312 52.671875 -57.5625 C 54.992188 -56.925781 57.28125 -56.023438 59.53125 -54.859375 C 61.78125 -53.703125 63.84375 -52.191406 65.71875 -50.328125 C 68.113281 -47.929688 70.097656 -44.894531 71.671875 -41.21875 C 73.242188 -37.550781 74.03125 -33.320312 74.03125 -28.53125 Z M 39.421875 -50.4375 C 35.535156 -50.4375 32.429688 -49.875 30.109375 -48.75 C 27.785156 -47.625 26.023438 -46.5 24.828125 -45.375 C 22.648438 -43.28125 21.054688 -40.695312 20.046875 -37.625 C 19.035156 -34.5625 18.53125 -31.53125 18.53125 -28.53125 C 18.53125 -25.53125 19.035156 -22.492188 20.046875 -19.421875 C 21.054688 -16.359375 22.648438 -13.78125 24.828125 -11.6875 C 26.023438 -10.5625 27.785156 -9.4375 30.109375 -8.3125 C 32.429688 -7.1875 35.535156 -6.625 39.421875 -6.625 C 43.316406 -6.625 46.425781 -7.1875 48.75 -8.3125 C 51.070312 -9.4375 52.832031 -10.5625 54.03125 -11.6875 C 56.195312 -13.78125 57.785156 -16.359375 58.796875 -19.421875 C 59.804688 -22.492188 60.3125 -25.53125 60.3125 -28.53125 C 60.3125 -31.53125 59.804688 -34.5625 58.796875 -37.625 C 57.785156 -40.695312 56.195312 -43.28125 54.03125 -45.375 C 52.832031 -46.5 51.070312 -47.625 48.75 -48.75 C 46.425781 -49.875 43.316406 -50.4375 39.421875 -50.4375 Z M 39.421875 -50.4375 "/></g></g></g></g></g></svg>